<svg width="41" height="41" viewBox="0 0 41 41" fill="none" xmlns="http://www.w3.org/2000/svg">
<path d="M17.7774 14.826V6.75092L18.032 4.29453L18.8242 3.95572H22.5584L23.4354 4.29453L23.7183 6.75092V14.826L23.0217 23.3714L21.6814 39.8136H19.786L18.4643 23.3714L17.7774 14.826Z" fill="url(#paint0_linear)"/>
<path d="M18.4643 23.3714L19.786 39.8136H21.6814L23.0217 23.3714M18.4643 23.3714L17.7774 14.826V6.75092L18.032 4.29453L18.8242 3.95572H22.5584L23.4354 4.29453L23.7183 6.75092V14.826L23.0217 23.3714M18.4643 23.3714H23.0217" stroke="#3C4041" stroke-width="0.2"/>
<path d="M15.3793 4.43028L16.976 3.67648C16.976 2.51663 16.7764 2.39502 16.7764 1.79199C16.7764 1.18895 16.5769 -0.0925052 16.3773 0.661292C16.1777 1.03819 16.3373 0.284393 16.1777 0.284393C15.9781 0.284393 15.9781 1.41509 15.7785 1.03819C15.6656 0.824984 15.3793 1.79199 15.3793 2.92268V3.67648V4.43028Z" fill="url(#paint1_linear)"/>
<path d="M26.116 4.43028L24.5193 3.67648C24.5193 2.51663 24.7189 2.39503 24.7189 1.79199C24.7189 1.18895 24.9185 -0.0925052 25.1181 0.661292C25.3177 1.03819 25.158 0.284393 25.3177 0.284393C25.5173 0.284393 25.5173 1.41509 25.7168 1.03819C25.8298 0.824984 26.116 1.79199 26.116 2.92268V3.67648V4.43028Z" fill="url(#paint2_linear)"/>
<path d="M36.0007 13.7478H26.8436V8.53238H23.7266V6.77398H24.4506V3.52591H26.2693V6.45555L38.0108 9.06674L38.2341 16.5501H37.6598V27.2815L37.1812 29.415L36.7026 27.2815V16.5501H36.0007V13.7478Z" fill="url(#paint3_linear)"/>
<path d="M17.0483 6.77398H17.7822V8.53238H14.5597V13.7478H5.49827V16.5501H4.82824V27.2815L4.38155 29.415L3.93487 27.2815V16.5501H3.26483L3.52008 9.06674L15.2935 6.45555V3.52591H17.0483V6.77398Z" fill="url(#paint4_linear)"/>
<path d="M36.0007 13.7478H26.8436V8.53238H23.7266V6.77398H24.4506V3.52591H26.2693V6.45555L38.0108 9.06674L38.2341 16.5501H37.6598V27.2815L37.1812 29.415L36.7026 27.2815V16.5501H36.0007V13.7478Z" stroke="#3C4041" stroke-width="0.2"/>
<path d="M17.0483 6.77398H17.7822V8.53238H14.5597V13.7478H5.49827V16.5501H4.82824V27.2815L4.38155 29.415L3.93487 27.2815V16.5501H3.26483L3.52008 9.06674L15.2935 6.45555V3.52591H17.0483V6.77398Z" stroke="#3C4041" stroke-width="0.2"/>
<path d="M26.8302 8.58618V13.7531V14.7413H23.7183V8.58618H26.8302Z" fill="url(#paint5_linear)" stroke="#3C4041" stroke-width="0.2"/>
<path d="M17.7774 8.58618V13.7531V14.7413H14.5779V8.58618H17.7774Z" fill="url(#paint6_linear)" stroke="#3C4041" stroke-width="0.2"/>
<defs>
<linearGradient id="paint0_linear" x1="20.7479" y1="3.95572" x2="20.7479" y2="39.8136" gradientUnits="userSpaceOnUse">
<stop stop-color="#585C5D"/>
<stop offset="0.34871" stop-color="#C4C4C4"/>
<stop offset="0.352851" stop-color="#50B7CE"/>
<stop offset="0.533686" stop-color="#18CFFD"/>
<stop offset="0.543349" stop-color="#C4C4C4"/>
<stop offset="1" stop-color="#585C5D"/>
</linearGradient>
<linearGradient id="paint1_linear" x1="16.1777" y1="0.284393" x2="16.1777" y2="4.43028" gradientUnits="userSpaceOnUse">
<stop stop-color="#D118FF" stop-opacity="0"/>
<stop offset="1" stop-color="#50B7CE"/>
</linearGradient>
<linearGradient id="paint2_linear" x1="25.3177" y1="0.284393" x2="25.3177" y2="4.43028" gradientUnits="userSpaceOnUse">
<stop stop-color="#D118FF" stop-opacity="0"/>
<stop offset="1" stop-color="#50B7CE"/>
</linearGradient>
<linearGradient id="paint3_linear" x1="38.2341" y1="11.8605" x2="3.26483" y2="11.8605" gradientUnits="userSpaceOnUse">
<stop stop-color="#919495"/>
<stop offset="0.195269" stop-color="#919495"/>
<stop offset="0.196407" stop-color="#FBFF4A"/>
<stop offset="0.230534" stop-color="#F1F362"/>
<stop offset="0.231671" stop-color="#C7C7BE"/>
<stop offset="0.415956" stop-color="#C4C4C4"/>
<stop offset="0.58659" stop-color="#C4C4C4"/>
<stop offset="0.786358" stop-color="#C7C7BE"/>
<stop offset="0.786458" stop-color="#F3F65D"/>
<stop offset="0.822917" stop-color="#FBFF4A"/>
<stop offset="0.823017" stop-color="#919495"/>
<stop offset="1" stop-color="#919495"/>
</linearGradient>
<linearGradient id="paint4_linear" x1="38.2341" y1="11.8605" x2="3.26483" y2="11.8605" gradientUnits="userSpaceOnUse">
<stop stop-color="#919495"/>
<stop offset="0.195269" stop-color="#919495"/>
<stop offset="0.196407" stop-color="#FBFF4A"/>
<stop offset="0.230534" stop-color="#F1F362"/>
<stop offset="0.231671" stop-color="#C7C7BE"/>
<stop offset="0.415956" stop-color="#C4C4C4"/>
<stop offset="0.58659" stop-color="#C4C4C4"/>
<stop offset="0.786358" stop-color="#C7C7BE"/>
<stop offset="0.786458" stop-color="#F3F65D"/>
<stop offset="0.822917" stop-color="#FBFF4A"/>
<stop offset="0.823017" stop-color="#919495"/>
<stop offset="1" stop-color="#919495"/>
</linearGradient>
<linearGradient id="paint5_linear" x1="25.2742" y1="8.58618" x2="25.2742" y2="14.7413" gradientUnits="userSpaceOnUse">
<stop stop-color="#919495"/>
<stop offset="0.828025" stop-color="#919495"/>
<stop offset="0.828125" stop-color="#592E28"/>
<stop offset="1" stop-color="#4F1A13"/>
</linearGradient>
<linearGradient id="paint6_linear" x1="16.1777" y1="8.58618" x2="16.1777" y2="14.7413" gradientUnits="userSpaceOnUse">
<stop stop-color="#919495"/>
<stop offset="0.837269" stop-color="#919495"/>
<stop offset="0.840875" stop-color="#592E28"/>
<stop offset="1" stop-color="#592E28"/>
</linearGradient>
</defs>
</svg>
