<svg width="41" height="81" viewBox="0 0 41 81" fill="none" xmlns="http://www.w3.org/2000/svg">
<path d="M3.84991 6.46872L7.29006 5.47035C7.29006 3.93417 6.86005 3.77311 6.86005 2.97441C6.86005 2.17571 6.43003 0.478474 6.00001 1.47685C5.56999 1.97604 5.914 0.977661 5.56999 0.977661C5.13997 0.977661 5.13997 2.47522 4.70995 1.97604C4.4667 1.69365 3.84991 2.97441 3.84991 4.47197V5.47035V6.46872Z" fill="url(#paint0_linear)"/>
<path d="M36.3959 6.46872L32.9558 5.47035C32.9558 3.93417 33.3858 3.77311 33.3858 2.97441C33.3858 2.17571 33.8158 0.478474 34.2458 1.47685C34.6759 1.97604 34.3318 0.977661 34.6759 0.977661C35.1059 0.977661 35.1059 2.47522 35.5359 1.97604C35.7792 1.69365 36.3959 2.97441 36.3959 4.47197V5.47035V6.46872Z" fill="url(#paint1_linear)"/>
<path d="M36.2297 51.7654C35.6003 72.4558 25.2813 79.0707 20.2005 79.7919C16.3468 79.2167 5.52309 74.6158 3.95537 51.7654C3.55849 39.7493 9.82037 36.0451 13.26 30.426C13.6716 26.8456 14.4947 19.5878 14.4947 19.1998C14.2125 17.4359 9.90856 19.0528 7.79187 20.0818C7.58608 21.8897 7.12159 25.5851 6.90992 25.9026C6.24846 27.0051 4.17585 26.4759 4.17585 25.9026C2.89701 14.7901 3.47026 6.63189 3.47026 5.88227C5.26945 3.97729 6.954 5.08853 7.57138 5.88227L8.05645 10.5566L14.142 6.27915L16.3909 2.26624C20.201 0.678717 23.0938 1.78118 24.0639 2.53084L26.1806 6.27915L32.3543 10.5566C32.4719 9.1896 32.7071 6.34089 32.7071 5.88227C34.4005 4.08307 36.0879 5.1326 36.72 5.88227C36.8817 12.0413 36.9493 24.6679 35.9262 25.9026C34.9032 27.1374 33.8536 26.4171 33.4568 25.9026L32.3543 20.0818C27.8034 17.6123 26.0189 18.4648 25.6956 19.1998C25.916 22.5806 26.4828 29.559 26.9858 30.426C34.9513 40.6532 36.2297 42.4233 36.2297 51.7654Z" fill="url(#paint2_radial)" stroke="#3C4041" stroke-width="0.2"/>
<path d="M33.4568 25.8643L32.3543 20.0434V10.5183C32.4719 9.15122 32.7071 6.30251 32.7071 5.8439C34.4004 4.04469 36.0879 5.09423 36.72 5.8439C36.8817 12.0029 36.9493 24.6295 35.9262 25.8643C34.9032 27.099 33.8536 26.3787 33.4568 25.8643Z" fill="url(#paint3_linear)" stroke="#3C4041" stroke-width="0.2"/>
<path d="M7.57138 5.88228L8.05645 10.5566L7.79187 20.0818C7.58608 21.8897 7.12159 25.5851 6.90992 25.9026C6.24846 27.0051 4.17585 26.4759 4.17585 25.9026C2.89701 14.7901 3.47026 6.6319 3.47026 5.88228C5.26945 3.9773 6.954 5.08854 7.57138 5.88228Z" fill="url(#paint4_linear)" stroke="#3C4041" stroke-width="0.2"/>
<path d="M25.6956 19.1998C25.9161 22.5806 26.4828 29.559 26.9859 30.426C26.9859 32.4212 25.3796 49.2971 24.1646 52.2026C22.9496 55.108 16.6633 54.3156 16.0822 52.2026C15.0679 47.4271 13.7781 35.6951 13.26 30.426C13.6716 26.8456 14.4947 19.5878 14.4947 19.1998L16.391 6.27916C19.6808 1.40523 22.6624 4.24836 23.742 6.27916L25.6956 19.1998Z" fill="url(#paint5_linear)" stroke="#3C4041" stroke-width="0.2"/>
<path d="M13.9071 59.8668L13.7796 59.7281L14.1111 58.4695L13.2953 59.201L13.1678 59.0622L14.2264 58.1129L14.3539 58.2517L14.0201 59.515L14.8396 58.7803L14.9658 58.9176L13.9071 59.8668Z" fill="black"/>
<path d="M15.6784 60.5469C15.5758 60.6585 15.4621 60.7204 15.3374 60.7327C15.2137 60.7448 15.0885 60.7061 14.9621 60.6166C14.8249 60.5196 14.7503 60.393 14.7381 60.2369C14.7264 60.0811 14.7798 59.9215 14.8982 59.7581L14.9785 59.6474C15.0561 59.5404 15.1434 59.4598 15.2405 59.4057C15.3382 59.352 15.438 59.3286 15.54 59.3353C15.6424 59.3416 15.7401 59.3776 15.8331 59.4434C15.9565 59.5307 16.0305 59.6349 16.0552 59.756C16.0803 59.8767 16.0552 60.0017 15.9799 60.131L15.8261 60.0222C15.8793 59.9211 15.8985 59.8342 15.8836 59.7615C15.8693 59.6891 15.8223 59.6248 15.7426 59.5684C15.6448 59.4992 15.542 59.4807 15.4342 59.5129C15.327 59.5455 15.2254 59.6279 15.1295 59.7602L15.0487 59.8717C14.9581 59.9966 14.9124 60.1146 14.9115 60.2256C14.9106 60.3366 14.9574 60.4256 15.0521 60.4925C15.1371 60.5527 15.216 60.5798 15.2886 60.5738C15.3622 60.5676 15.4409 60.5224 15.5245 60.438L15.6784 60.5469Z" fill="black"/>
<path d="M17.3303 61.2353C17.2536 61.3661 17.1558 61.4505 17.0366 61.4887C16.9183 61.5266 16.788 61.515 16.6455 61.4539C16.4911 61.3878 16.3915 61.2796 16.3466 61.1293C16.3022 60.9793 16.3206 60.8119 16.4018 60.6271L16.4568 60.5019C16.5099 60.3809 16.5782 60.2837 16.6616 60.2104C16.7456 60.1373 16.8381 60.0934 16.9391 60.0786C17.0405 60.0632 17.1435 60.078 17.2482 60.1228C17.387 60.1823 17.4813 60.2688 17.5311 60.3822C17.5811 60.495 17.583 60.6226 17.5368 60.765L17.3636 60.6907C17.3942 60.5806 17.3945 60.4915 17.3647 60.4235C17.3354 60.3557 17.2759 60.3026 17.1862 60.2641C17.076 60.2169 16.9718 60.2204 16.8733 60.2746C16.7755 60.329 16.6937 60.431 16.628 60.5806L16.5727 60.7067C16.5106 60.8479 16.4909 60.973 16.5135 61.0818C16.5361 61.1907 16.6007 61.2679 16.7072 61.3136C16.8029 61.3546 16.8857 61.3645 16.9554 61.3434C17.0259 61.322 17.0932 61.2612 17.157 61.1611L17.3303 61.2353Z" fill="black"/>
<path d="M18.4055 61.3531L17.9394 61.2539L17.9708 61.1098L18.437 61.2091L18.4055 61.3531Z" fill="black"/>
<path d="M20.472 60.676L19.8629 61.9873L19.6735 61.9845L20.2799 60.72L19.5104 60.7084L19.5127 60.56L20.4736 60.5744L20.472 60.676Z" fill="black"/>
<path d="M22.0627 61.2176L22.2562 61.1795L22.2854 61.324L22.0919 61.3622L22.1573 61.6857L21.9791 61.7209L21.9137 61.3973L21.2785 61.5226L21.2574 61.4183L21.6868 60.3293L21.8756 60.292L22.0627 61.2176ZM21.4504 61.3384L21.8845 61.2528L21.7463 60.5694L21.733 60.6118L21.4504 61.3384Z" fill="black"/>
<path d="M23.2889 59.7135L23.3506 59.8539L23.32 59.867C23.1918 59.9247 23.1057 60.007 23.0615 60.1137C23.0174 60.2205 23.0188 60.3435 23.0657 60.4827C23.1 60.3745 23.1766 60.2949 23.2957 60.2439C23.4094 60.1952 23.5176 60.1963 23.6203 60.2472C23.7236 60.2978 23.803 60.3863 23.8585 60.5127C23.9174 60.6468 23.9277 60.7699 23.8894 60.8819C23.8518 60.9937 23.7713 61.076 23.648 61.1288C23.523 61.1824 23.4006 61.1782 23.2809 61.1161C23.161 61.0535 23.0679 60.9468 23.0017 60.7959L22.9738 60.7325C22.8686 60.4928 22.8394 60.2879 22.8862 60.1177C22.9334 59.9466 23.0577 59.8161 23.2593 59.7262L23.2889 59.7135ZM23.3284 60.3935C23.2715 60.4179 23.2266 60.4573 23.1937 60.5118C23.1607 60.5663 23.1462 60.6232 23.1502 60.6824L23.1769 60.7432C23.224 60.8505 23.2862 60.9265 23.3635 60.9713C23.4407 61.0161 23.5156 61.023 23.588 60.992C23.6628 60.9599 23.7094 60.9074 23.7278 60.8343C23.7468 60.761 23.7368 60.68 23.6978 60.5911C23.6585 60.5017 23.605 60.439 23.5372 60.4028C23.4698 60.3659 23.4002 60.3628 23.3284 60.3935Z" fill="black"/>
<path d="M24.5026 59.7691L24.1454 59.1534L24.7401 58.7326L24.8381 58.8678L24.3686 59.2L24.5611 59.5387C24.5939 59.4653 24.6464 59.403 24.7187 59.3519C24.8244 59.277 24.9336 59.2524 25.0463 59.278C25.1585 59.303 25.2574 59.3746 25.343 59.4927C25.429 59.6113 25.4644 59.7278 25.4493 59.8422C25.4342 59.9556 25.3688 60.0534 25.253 60.1353C25.1504 60.2079 25.0462 60.2389 24.9405 60.2284C24.8348 60.2179 24.7413 60.166 24.66 60.0728L24.7995 59.9741C24.8563 60.0336 24.9161 60.0667 24.9788 60.0733C25.0412 60.0795 25.1037 60.0603 25.1664 60.016C25.235 59.9675 25.2718 59.9063 25.277 59.8325C25.2827 59.7582 25.2559 59.6803 25.1967 59.5986C25.1409 59.5216 25.0749 59.475 24.9988 59.4587C24.9228 59.4415 24.8497 59.4577 24.7795 59.5074C24.7152 59.5529 24.6749 59.6025 24.6585 59.6564L24.6423 59.7157L24.5026 59.7691Z" fill="black"/>
<path d="M25.6872 57.6993L25.8014 57.8017L25.7789 57.8261C25.6857 57.9314 25.641 58.0417 25.6447 58.1569C25.6484 58.2722 25.7004 58.3835 25.8006 58.4909C25.7873 58.3784 25.8245 58.2744 25.9121 58.179C25.9958 58.088 26.0951 58.0445 26.2098 58.0485C26.3249 58.0521 26.4339 58.1 26.5367 58.1921C26.6457 58.2899 26.7059 58.3976 26.7172 58.5153C26.7289 58.6324 26.6893 58.7404 26.5986 58.8391C26.5065 58.9393 26.3931 58.9858 26.2583 58.9786C26.123 58.9709 25.994 58.9121 25.8714 58.8022L25.8197 58.7559C25.6249 58.5812 25.5137 58.4067 25.4863 58.2326C25.4588 58.0576 25.5185 57.8877 25.6654 57.7231L25.6872 57.6993ZM26.0036 58.3017C25.9618 58.3473 25.9371 58.4016 25.9294 58.4647C25.9218 58.5279 25.932 58.5855 25.9601 58.6378L26.0095 58.6821C26.0968 58.7603 26.1849 58.804 26.2739 58.8129C26.3629 58.8219 26.434 58.7974 26.4873 58.7394C26.5424 58.6795 26.5633 58.6125 26.55 58.5385C26.5371 58.464 26.4945 58.3943 26.4223 58.3296C26.3496 58.2644 26.2749 58.2293 26.1981 58.2243C26.1213 58.2184 26.0565 58.2442 26.0036 58.3017Z" fill="black"/>
<defs>
<linearGradient id="paint0_linear" x1="5.56999" y1="0.977661" x2="5.56999" y2="6.46872" gradientUnits="userSpaceOnUse">
<stop stop-color="#D118FF" stop-opacity="0"/>
<stop offset="1" stop-color="#50B7CE"/>
</linearGradient>
<linearGradient id="paint1_linear" x1="34.6759" y1="0.977661" x2="34.6759" y2="6.46872" gradientUnits="userSpaceOnUse">
<stop stop-color="#D118FF" stop-opacity="0"/>
<stop offset="1" stop-color="#50B7CE"/>
</linearGradient>
<radialGradient id="paint2_radial" cx="0" cy="0" r="1" gradientUnits="userSpaceOnUse" gradientTransform="translate(20.0779 48.6206) rotate(90) scale(31.1713 13.3187)">
<stop stop-color="#DBF6FA"/>
<stop offset="1" stop-color="#ACC6DE"/>
</radialGradient>
<linearGradient id="paint3_linear" x1="36.8136" y1="15.6982" x2="32.3543" y2="15.6982" gradientUnits="userSpaceOnUse">
<stop stop-color="#585C5D"/>
<stop offset="0.375" stop-color="#ACC6DE"/>
<stop offset="0.3751" stop-color="#E63A3A"/>
<stop offset="0.520833" stop-color="#E63A3A"/>
<stop offset="0.520933" stop-color="#ACC6DE"/>
<stop offset="1" stop-color="#585C5D"/>
</linearGradient>
<linearGradient id="paint4_linear" x1="8.05645" y1="14.329" x2="3.34216" y2="14.329" gradientUnits="userSpaceOnUse">
<stop stop-color="#585C5D"/>
<stop offset="0.432292" stop-color="#ACC6DE"/>
<stop offset="0.432392" stop-color="#E73A3A"/>
<stop offset="0.546875" stop-color="#E73A3A"/>
<stop offset="0.546975" stop-color="#ACC6DE"/>
<stop offset="1" stop-color="#585C5D"/>
</linearGradient>
<linearGradient id="paint5_linear" x1="26.9859" y1="30.7046" x2="13.26" y2="30.7046" gradientUnits="userSpaceOnUse">
<stop stop-color="#798B97"/>
<stop offset="0.286458" stop-color="#CFEAF3"/>
<stop offset="0.677083" stop-color="#CFEAF3"/>
<stop offset="1" stop-color="#798B97"/>
</linearGradient>
</defs>
</svg>
