<svg width="380" height="144" viewBox="0 0 380 144" fill="none" xmlns="http://www.w3.org/2000/svg">
<path d="M13.4816 33.912L11.0336 38.52V54H3.1136L3.1136 3.6H11.0336V25.56L21.5456 3.6H29.3216L18.3056 26.064L29.3216 54H21.1856L13.4816 33.912ZM64.3901 3.6C68.3741 3.6 71.3261 4.656 73.2461 6.768C75.2141 8.88 76.1981 11.976 76.1981 16.056V22.608C76.1981 26.688 75.2141 29.784 73.2461 31.896C71.3261 34.008 68.3741 35.064 64.3901 35.064H60.6461V54H52.7261V3.6H64.3901ZM60.6461 10.8V27.864H64.3901C65.6381 27.864 66.5981 27.528 67.2701 26.856C67.9421 26.184 68.2781 24.936 68.2781 23.112V15.552C68.2781 13.728 67.9421 12.48 67.2701 11.808C66.5981 11.136 65.6381 10.8 64.3901 10.8L60.6461 10.8ZM107.516 24.84H118.388V32.04H107.516V46.8H121.196V54H99.5964V3.6L121.196 3.6V10.8H107.516V24.84ZM168.589 35.208V41.904C168.589 45.984 167.581 49.128 165.565 51.336C163.597 53.496 160.669 54.576 156.781 54.576C152.893 54.576 149.941 53.496 147.925 51.336C145.957 49.128 144.973 45.984 144.973 41.904V15.696C144.973 11.616 145.957 8.496 147.925 6.336C149.941 4.128 152.893 3.024 156.781 3.024C160.669 3.024 163.597 4.128 165.565 6.336C167.581 8.496 168.589 11.616 168.589 15.696V20.592H161.101V15.192C161.101 13.368 160.717 12.096 159.949 11.376C159.229 10.608 158.245 10.224 156.997 10.224C155.749 10.224 154.741 10.608 153.973 11.376C153.253 12.096 152.893 13.368 152.893 15.192V42.408C152.893 44.232 153.253 45.504 153.973 46.224C154.741 46.944 155.749 47.304 156.997 47.304C158.245 47.304 159.229 46.944 159.949 46.224C160.717 45.504 161.101 44.232 161.101 42.408V35.208H168.589ZM191.247 3.6L215.727 3.6V10.8H207.447V54H199.527V10.8L191.247 10.8V3.6ZM247.289 54H239.153V3.6L246.209 3.6V33.768L254.345 3.6H264.281V54H257.153V17.496L247.289 54ZM359.915 54H351.779V3.6H358.835V33.768L366.971 3.6L376.907 3.6V54H369.779V17.496L359.915 54Z" fill="black"/>
<path d="M52.7787 126H44.8587V75.6H52.7787V97.2H61.7787V75.6H69.8427V126H61.7787V104.4H52.7787V126ZM177.433 82.8H168.217V113.472C168.217 116.016 167.905 118.104 167.281 119.736C166.657 121.368 165.817 122.664 164.761 123.624C163.705 124.536 162.481 125.184 161.089 125.568C159.745 125.952 158.329 126.144 156.841 126.144C156.121 126.144 155.473 126.144 154.897 126.144C154.321 126.144 153.697 126.096 153.025 126V118.8C153.457 118.848 153.913 118.872 154.393 118.872C154.873 118.872 155.329 118.872 155.761 118.872C157.009 118.872 158.065 118.56 158.929 117.936C159.841 117.312 160.297 116.016 160.297 114.048V75.6H185.353V126H177.433V82.8ZM218.33 126H210.194V75.6H217.25V105.768L225.386 75.6H235.322V126H228.194V89.496L218.33 126ZM270.51 105.912L268.062 110.52V126H260.142V75.6H268.062V97.56L278.574 75.6H286.35L275.334 98.064L286.35 126H278.214L270.51 105.912ZM317.17 126H309.034V75.6H316.09V105.768L324.226 75.6H334.162V126H327.034V89.496L317.17 126Z" fill="black"/>
<g filter="url(#filter0_d)">
<path d="M288.26 50.35L333.311 5.29894M288.26 5.29894L333.311 50.35" stroke="#E41616" stroke-width="5" stroke-linecap="round" stroke-linejoin="round"/>
</g>
<g filter="url(#filter1_d)">
<circle cx="113.993" cy="100" r="21.7798" stroke="#0047FF" stroke-width="5"/>
</g>
<defs>
<filter id="filter0_d" x="281.76" y="2.79894" width="58.0511" height="60.0511" filterUnits="userSpaceOnUse" color-interpolation-filters="sRGB">
<feFlood flood-opacity="0" result="BackgroundImageFix"/>
<feColorMatrix in="SourceAlpha" type="matrix" values="0 0 0 0 0 0 0 0 0 0 0 0 0 0 0 0 0 0 127 0"/>
<feOffset dy="6"/>
<feGaussianBlur stdDeviation="2"/>
<feColorMatrix type="matrix" values="0 0 0 0 0 0 0 0 0 0 0 0 0 0 0 0 0 0 0.5 0"/>
<feBlend mode="normal" in2="BackgroundImageFix" result="effect1_dropShadow"/>
<feBlend mode="normal" in="SourceGraphic" in2="effect1_dropShadow" result="shape"/>
</filter>
<filter id="filter1_d" x="85.7128" y="75.7202" width="56.5597" height="58.5597" filterUnits="userSpaceOnUse" color-interpolation-filters="sRGB">
<feFlood flood-opacity="0" result="BackgroundImageFix"/>
<feColorMatrix in="SourceAlpha" type="matrix" values="0 0 0 0 0 0 0 0 0 0 0 0 0 0 0 0 0 0 127 0"/>
<feOffset dy="6"/>
<feGaussianBlur stdDeviation="2"/>
<feColorMatrix type="matrix" values="0 0 0 0 0 0 0 0 0 0 0 0 0 0 0 0 0 0 0.5 0"/>
<feBlend mode="normal" in2="BackgroundImageFix" result="effect1_dropShadow"/>
<feBlend mode="normal" in="SourceGraphic" in2="effect1_dropShadow" result="shape"/>
</filter>
</defs>
</svg>
